<svg xmlns="http://www.w3.org/2000/svg" viewBox="0 0 200 200" fill="none">
  
  <line x1="100" y1="100" x2="44" y2="52" stroke="#8ECFBE" stroke-width="4" stroke-linecap="round" opacity="0.5"></line>
  <line x1="100" y1="100" x2="160" y2="50" stroke="#8ECFBE" stroke-width="4" stroke-linecap="round" opacity="0.5"></line>
  <line x1="100" y1="100" x2="172" y2="118" stroke="#8ECFBE" stroke-width="4" stroke-linecap="round" opacity="0.5"></line>
  <line x1="100" y1="100" x2="122" y2="170" stroke="#8ECFBE" stroke-width="4" stroke-linecap="round" opacity="0.5"></line>
  <line x1="100" y1="100" x2="48" y2="158" stroke="#8ECFBE" stroke-width="4" stroke-linecap="round" opacity="0.5"></line>
  <line x1="100" y1="100" x2="26" y2="118" stroke="#8ECFBE" stroke-width="4" stroke-linecap="round" opacity="0.5"></line>
  
  <line x1="44" y1="52" x2="160" y2="50" stroke="#8ECFBE" stroke-width="3" stroke-linecap="round" opacity="0.3"></line>
  <line x1="160" y1="50" x2="172" y2="118" stroke="#8ECFBE" stroke-width="3" stroke-linecap="round" opacity="0.3"></line>
  <line x1="48" y1="158" x2="26" y2="118" stroke="#8ECFBE" stroke-width="3" stroke-linecap="round" opacity="0.3"></line>
  <line x1="122" y1="170" x2="48" y2="158" stroke="#8ECFBE" stroke-width="3" stroke-linecap="round" opacity="0.3"></line>
  
  <circle cx="100" cy="100" r="13" fill="#8ECFBE"></circle>
  <circle cx="44" cy="52" r="9" fill="#8ECFBE"></circle>
  <circle cx="160" cy="50" r="9" fill="#8ECFBE"></circle>
  <circle cx="172" cy="118" r="9" fill="#8ECFBE"></circle>
  <circle cx="122" cy="170" r="9" fill="#8ECFBE"></circle>
  <circle cx="48" cy="158" r="9" fill="#8ECFBE"></circle>
  <circle cx="26" cy="118" r="7" fill="#8ECFBE"></circle>
</svg>